<?xml version="1.0" standalone="no"?>
<!DOCTYPE svg PUBLIC "-//W3C//DTD SVG 20010904//EN"
 "http://www.w3.org/TR/2001/REC-SVG-20010904/DTD/svg10.dtd">
<svg version="1.0" xmlns="http://www.w3.org/2000/svg"
 width="700.000000pt" height="700.000000pt" viewBox="0 0 700.000000 700.000000"
 preserveAspectRatio="xMidYMid meet">
<metadata>
Created by potrace 1.14, written by Peter Selinger 2001-2017
</metadata>
<g transform="translate(0.000000,700.000000) scale(0.100000,-0.100000)"
fill="#000000" stroke="none">
<path d="M3301 6970 c-60 -28 -3253 -3219 -3277 -3275 -20 -49 -20 -120 1
-170 19 -44 216 -245 267 -271 39 -20 135 -20 183 0 20 9 68 46 106 82 l69 67
0 -1056 0 -1055 -52 -18 c-69 -22 -190 -86 -253 -134 -168 -127 -302 -339
-336 -536 -15 -87 -6 -310 16 -389 9 -33 31 -94 50 -135 l34 -75 3387 0 3388
0 37 75 c102 203 101 504 -2 725 -59 128 -185 279 -293 352 -23 15 -43 31 -46
34 -7 10 -181 86 -213 94 l-27 7 2 949 3 949 70 -70 c39 -38 87 -76 107 -85
47 -19 138 -19 183 -1 42 18 229 207 256 258 25 49 26 151 2 196 -29 53 -3441
3461 -3488 3483 -52 24 -119 24 -174 -1z"/>
</g>
</svg>
